<?xml version="1.0"?>
<svg xmlns="http://www.w3.org/2000/svg" xmlns:xlink="http://www.w3.org/1999/xlink" xmlns:svgjs="http://svgjs.com/svgjs" version="1.1" width="512" height="512" x="0" y="0" viewBox="0 0 511.99928 511" style="enable-background:new 0 0 512 512" xml:space="preserve" class=""><g><path xmlns="http://www.w3.org/2000/svg" d="m258.394531 220.1875c.101563-.027344.199219-.050781.300781-.078125.355469-.101563.707032-.214844 1.046876-.355469.027343-.007812.054687-.015625.082031-.027344.378906-.15625.742187-.339843 1.097656-.539062.023437-.015625.050781-.027344.078125-.039062l86.597656-50c3.09375-1.785157 5-5.085938 5-8.660157v-99.992187c0-.027344-.003906-.058594-.007812-.085938-.003906-.40625-.027344-.816406-.078125-1.226562-.003907-.019532-.011719-.042969-.015625-.066406-.050782-.367188-.125-.734376-.21875-1.101563-.027344-.097656-.054688-.191406-.082032-.289063-.085937-.292968-.183593-.585937-.296874-.875-.039063-.09375-.074219-.191406-.113282-.285156-.152344-.363281-.328125-.71875-.527344-1.070312-.199218-.347656-.425781-.671875-.660156-.988282-.0625-.085937-.132812-.164062-.199218-.246093-.191407-.238281-.386719-.46875-.597657-.6875-.070312-.074219-.144531-.152344-.21875-.222657-.261719-.257812-.535156-.5-.820312-.722656-.027344-.019531-.050781-.042968-.074219-.0625-.324219-.25-.664062-.472656-1.011719-.675781-.027343-.019531-.050781-.039063-.078125-.054687l-86.597656-49.996094c-3.09375-1.7851565-6.902344-1.7851565-9.996094 0l-86.601562 49.996094c-.023438.015624-.046875.035156-.070313.050781-.351562.207031-.691406.429687-1.019531.679687-.019531.015625-.039062.035156-.054688.046875-.292968.230469-.570312.476563-.839843.738281-.074219.070313-.140625.144532-.210938.21875-.210937.21875-.414062.453126-.609375.695313-.0625.078125-.128906.15625-.191406.238281-.234375.316406-.460938.644532-.660156.992188-.203125.351562-.375.710937-.53125 1.070312-.039063.09375-.074219.191406-.109375.285156-.113281.289063-.214844.582032-.300781.875-.027344.097657-.054688.191407-.082032.289063-.089844.367187-.167968.730469-.21875 1.101563-.003906.023437-.007812.046874-.011718.070312-.054688.40625-.078126.816406-.082032 1.222656 0 .03125-.003906.058594-.003906.085938v99.992187c0 3.574219 1.902344 6.875 4.996094 8.660157l86.601562 50c.023438.011718.050782.023437.078125.039062.351563.199219.71875.382812 1.097657.539062.023437.011719.050781.015626.078124.027344.339844.140625.691407.253906 1.050782.355469.097656.027344.199218.050781.296875.078125.296875.070312.59375.128906.898437.175781.105469.015625.207032.035157.3125.046875.386719.046875.785156.078125 1.1875.078125s.796875-.03125 1.1875-.078125c.101563-.011718.207032-.03125.308594-.046875.300781-.046875.601562-.105469.894531-.175781zm64.203125-159.691406-66.597656 38.449218-23.300781-13.449218 66.597656-38.453125zm-56.597656 132.671875v-76.902344l66.597656-38.449219v76.902344zm-10-171.121094 23.300781 13.449219-66.601562 38.453125-23.300781-13.453125zm-76.597656 55.769531 66.597656 38.449219v76.902344l-66.597656-38.449219zm0 0" fill="#ffffff" data-original="#000000" style="" class=""/><path xmlns="http://www.w3.org/2000/svg" d="m489.5625 113.214844c-13.425781-2.78125-29.878906 3.984375-33.910156 22.046875l-13.964844 62.554687c-10.222656-3.289062-21.898438-.417968-29.359375 8.203125l-18.234375 21.0625c-13.210938 15.265625-13.210938 15.265625-27.011719 18.933594-3.21875.859375-7.226562 1.925781-12.097656 3.351563-56.28125 16.496093-78.367187 68.226562-80.75 110.703124-7.601563 3.65625-12.863281 11.429688-12.863281 20.414063v17.355469c0 12.480468 10.15625 22.636718 22.636718 22.636718h91.703126c12.480468 0 22.636718-10.15625 22.636718-22.636718v-17.355469c0-4.273437-1.191406-8.277344-3.261718-11.691406l41.109374-22.082031c.042969-.019532.085938-.046876.128907-.066407 35.886719-19.945312 42.046875-28.917969 50.683593-73.84375 1.042969-5.421875-2.507812-10.664062-7.933593-11.707031-5.429688-1.042969-10.664063 2.507812-11.707031 7.933594-7.800782 40.578125-11.300782 43.761718-40.695313 60.101562l-53.472656 28.71875h-78.761719c2.914062-35.042968 21.363281-76.15625 66.175781-89.289062 4.625-1.355469 8.339844-2.34375 11.613281-3.214844 17.515626-4.660156 20.707032-6.363281 36.988282-25.171875l18.234375-21.0625c1.316406-1.523437 3.167969-2.441406 5.210937-2.589844 2.042969-.148437 4.007813.5 5.53125 1.816407 3.925782 3.394531 1.855469 8.980468.011719 11.746093-9.492187 14.253907-18.84375 27.84375-27.890625 40.988281-4.621094 6.714844-9.242188 13.433594-13.902344 20.265626-3.113281 4.5625-1.9375 10.78125 2.625 13.894531 4.558594 3.113281 10.78125 1.9375 13.894532-2.625 4.644531-6.808594 9.25-13.503907 13.859374-20.199219 9.085938-13.203125 18.480469-26.859375 28.058594-41.238281 5.808594-8.71875 6.964844-18.894531 3.773438-27.402344l16.546875-74.144531c1.820312-8.160156 8.917969-7.121094 10.324219-6.824219 2.347656.488281 7.664062 2.410156 6.257812 9.703125l-11.332031 58.804688c-1.046875 5.421874 2.503906 10.667968 7.925781 11.710937 5.421875 1.046875 10.667969-2.503906 11.710938-7.925781l11.332031-58.808594c3.46875-18.007812-8.351563-30.265625-21.824219-33.066406zm-111.214844 284.625c0 1.429687-1.207031 2.636718-2.636718 2.636718h-91.703126c-1.429687 0-2.636718-1.207031-2.636718-2.636718v-17.355469c0-1.429687 1.207031-2.636719 2.636718-2.636719h91.683594.027344.007812c1.421876.011719 2.621094 1.214844 2.621094 2.636719zm0 0" fill="#ffffff" data-original="#000000" style="" class=""/><path xmlns="http://www.w3.org/2000/svg" d="m486.683594 221.585938c-5.425782-1.042969-10.664063 2.511718-11.703125 7.9375l-.050781.261718c-1.042969 5.425782 2.511718 10.667969 7.933593 11.707032.636719.121093 1.273438.179687 1.898438.179687 4.699219 0 8.890625-3.328125 9.808593-8.113281l.050782-.265625c1.039062-5.425781-2.515625-10.667969-7.9375-11.707031zm0 0" fill="#ffffff" data-original="#000000" style="" class=""/><path xmlns="http://www.w3.org/2000/svg" d="m237.765625 360.070312c-2.382813-42.476562-24.46875-94.210937-80.753906-110.703124-4.867188-1.425782-8.875-2.492188-12.097657-3.351563-13.796874-3.671875-13.796874-3.671875-27.011718-18.933594l-18.230469-21.0625c-7.464844-8.621093-19.136719-11.492187-29.363281-8.207031l-13.960938-62.550781c-4.03125-18.058594-20.476562-24.84375-33.910156-22.046875-13.472656 2.800781-25.296875 15.058594-21.824219 33.066406 1.042969 5.421875 6.285157 8.972656 11.710938 7.929688 5.421875-1.046876 8.96875-6.289063 7.925781-11.710938-1.40625-7.292969 3.90625-9.21875 6.257812-9.707031 1.398438-.292969 8.5-1.335938 10.320313 6.824219l16.550781 74.148437c-3.191406 8.503906-2.035156 18.683594 3.773438 27.402344 9.578125 14.378906 18.972656 28.03125 28.058594 41.238281 4.609374 6.695312 9.214843 13.390625 13.859374 20.199219 3.113282 4.5625 9.335938 5.734375 13.894532 2.625 4.5625-3.113281 5.738281-9.335938 2.625-13.894531-4.660156-6.832032-9.28125-13.550782-13.902344-20.265626-9.046875-13.144531-18.394531-26.738281-27.890625-40.988281-1.84375-2.765625-3.910156-8.351562.011719-11.746093 1.523437-1.320313 3.480468-1.964844 5.53125-1.816407 2.042968.144531 3.894531 1.066407 5.210937 2.589844l18.230469 21.0625c16.285156 18.808594 19.476562 20.511719 36.992188 25.171875 3.273437.871094 6.984374 1.859375 11.613281 3.214844 44.8125 13.132812 63.261719 54.246094 66.175781 89.289062h-78.761719l-53.472656-28.71875c-29.394531-16.339844-32.894531-19.523437-40.699219-60.109375l-11.332031-58.804687c-1.042969-5.421875-6.285156-8.96875-11.710937-7.925782-5.421876 1.046876-8.96875 6.289063-7.925782 11.710938l11.332032 58.800781c8.636718 44.925781 14.792968 53.894531 50.683593 73.84375.042969.023438.085938.046875.125.070313l41.109375 22.078125c-2.066406 3.414062-3.257812 7.417969-3.257812 11.691406v17.355469c0 12.480468 10.152344 22.636718 22.636718 22.636718h91.703126c12.480468 0 22.636718-10.15625 22.636718-22.636718v-17.355469c-.003906-8.984375-5.261718-16.757813-12.863281-20.414063zm-7.140625 37.769532c0 1.429687-1.207031 2.636718-2.636719 2.636718h-91.703125c-1.429687 0-2.636718-1.207031-2.636718-2.636718v-17.355469c0-1.425781 1.199218-2.625 2.621093-2.636719h.007813.027344 91.683593c1.429688 0 2.636719 1.207032 2.636719 2.636719zm0 0" fill="#ffffff" data-original="#000000" style="" class=""/><path xmlns="http://www.w3.org/2000/svg" d="m19.925781 193.71875c5.425781-1.039062 8.976563-6.28125 7.9375-11.703125l-.050781-.265625c-1.039062-5.421875-6.273438-8.980469-11.707031-7.9375-5.421875 1.039062-8.976563 6.28125-7.933594 11.707031l.050781.261719c.917969 4.789062 5.109375 8.117188 9.808594 8.117188.625 0 1.257812-.058594 1.894531-.179688zm0 0" fill="#ffffff" data-original="#000000" style="" class=""/></g></svg>
